SplineFontDB: 3.2
FontName: Untitled1
FullName: Untitled1
FamilyName: Untitled1
Weight: Regular
Copyright: Copyright (c) 2025, Yash Jadhav
UComments: "2025-12-7: Created with FontForge (http://fontforge.org)"
Version: 001.000
ItalicAngle: 0
UnderlinePosition: -100
UnderlineWidth: 50
Ascent: 800
Descent: 200
InvalidEm: 0
LayerCount: 2
Layer: 0 0 "Back" 1
Layer: 1 0 "Fore" 0
XUID: [1021 33 1549085769 12215009]
OS2Version: 0
OS2_WeightWidthSlopeOnly: 0
OS2_UseTypoMetrics: 1
CreationTime: 1765123852
ModificationTime: 1765123852
OS2TypoAscent: 0
OS2TypoAOffset: 1
OS2TypoDescent: 0
OS2TypoDOffset: 1
OS2TypoLinegap: 0
OS2WinAscent: 0
OS2WinAOffset: 1
OS2WinDescent: 0
OS2WinDOffset: 1
HheadAscent: 0
HheadAOffset: 1
HheadDescent: 0
HheadDOffset: 1
OS2Vendor: 'PfEd'
DEI: 91125
Encoding: ISO8859-1
UnicodeInterp: none
NameList: AGL For New Fonts
DisplaySize: -48
AntiAlias: 1
FitToEm: 0
BeginChars: 256 53

StartChar: g
Encoding: 103 103 1
Width: 600
VWidth: 817
Flags: HW
LayerCount: 2
Fore
SplineSet
227.272460938 453.591796875 m 0
 295.454101562 488.440429688 325.7578125 488.440429688 363.63671875 450.561523438 c 0
 387.87890625 426.319335938 393.939453125 400.561523438 393.939453125 308.137695312 c 0
 393.939453125 246.016601562 404.545898438 115.712890625 418.181640625 20.2587890625 c 0
 431.818359375 -76.7109375 437.87890625 -166.104492188 433.333007812 -178.225585938 c 0
 419.697265625 -214.58984375 357.576171875 -203.983398438 292.423828125 -157.013671875 c 0
 181.818359375 -76.7109375 124.2421875 62.6826171875 174.2421875 124.8046875 c 0
 196.969726562 153.591796875 196.969726562 152.077148438 187.87890625 99.046875 c 0
 177.272460938 32.3798828125 212.12109375 -49.4384765625 275.7578125 -102.46875 c 0
 316.666992188 -137.317382812 389.393554688 -166.104492188 400 -153.983398438 c 0
 403.030273438 -150.953125 395.454101562 -90.34765625 384.848632812 -19.134765625 c 0
 374.2421875 52.0771484375 365.151367188 147.53125 365.151367188 192.986328125 c 2
 363.63671875 277.834960938 l 1
 301.515625 271.774414062 l 2
 266.666992188 267.228515625 222.727539062 274.8046875 203.030273438 285.41015625 c 0
 171.211914062 302.077148438 165.151367188 314.198242188 169.697265625 365.712890625 c 0
 174.2421875 420.258789062 181.818359375 430.865234375 227.272460938 453.591796875 c 0
339.393554688 379.349609375 m 2
 350 435.41015625 l 1
 295.454101562 435.41015625 l 2
 246.969726562 435.41015625 181.818359375 394.500976562 181.818359375 364.198242188 c 0
 181.818359375 339.956054688 206.060546875 315.712890625 245.454101562 300.561523438 c 0
 296.969726562 280.865234375 327.272460938 305.107421875 339.393554688 379.349609375 c 2
EndSplineSet
EndChar

StartChar: A
Encoding: 65 65 2
Width: 600
VWidth: 1008
Flags: HW
LayerCount: 2
Fore
SplineSet
254.098632812 590.299804688 m 0
 277.048828125 628.004882812 306.557617188 660.791992188 319.671875 660.791992188 c 0
 359.016601562 660.791992188 395.08203125 567.349609375 406.557617188 434.5625 c 2
 418.033203125 308.333007812 l 1
 496.721679688 313.250976562 l 2
 588.524414062 319.80859375 601.639648438 290.299804688 513.115234375 273.907226562 c 0
 413.115234375 255.874023438 406.557617188 244.3984375 418.033203125 105.0546875 c 0
 426.229492188 16.529296875 422.951171875 -12.978515625 411.475585938 5.0546875 c 0
 401.639648438 18.1689453125 393.442382812 75.5458984375 393.442382812 131.284179688 c 0
 393.442382812 187.021484375 386.884765625 237.840820312 377.048828125 242.758789062 c 0
 368.852539062 247.677734375 336.065429688 247.677734375 304.91796875 241.120117188 c 0
 257.376953125 232.922851562 244.262695312 221.448242188 229.5078125 175.545898438 c 0
 209.8359375 118.168945312 173.770507812 101.775390625 159.016601562 142.758789062 c 0
 149.180664062 165.709960938 165.57421875 285.381835938 196.721679688 437.840820312 c 0
 204.91796875 482.103515625 231.147460938 550.956054688 254.098632812 590.299804688 c 0
357.376953125 526.366210938 m 0
 347.541015625 572.267578125 332.787109375 611.611328125 324.58984375 611.611328125 c 0
 303.278320312 611.611328125 278.688476562 534.5625 278.688476562 467.349609375 c 0
 278.688476562 432.922851562 272.130859375 382.103515625 263.934570312 352.595703125 c 0
 244.262695312 288.661132812 272.130859375 268.98828125 342.623046875 293.579101562 c 0
 380.328125 306.693359375 385.24609375 316.529296875 380.328125 373.907226562 c 0
 377.048828125 409.97265625 367.212890625 478.825195312 357.376953125 526.366210938 c 0
EndSplineSet
EndChar

StartChar: U
Encoding: 85 85 3
Width: 600
VWidth: 954
Flags: HW
LayerCount: 2
Fore
SplineSet
502.041015625 505.818359375 m 0
 573.469726562 583.369140625 591.836914062 585.41015625 591.836914062 522.14453125 c 0
 591.836914062 495.614257812 610.204101562 434.389648438 632.653320312 385.41015625 c 0
 702.041015625 232.348632812 685.713867188 113.981445312 583.673828125 44.59375 c 0
 457.142578125 -41.1201171875 273.469726562 1.736328125 228.571289062 130.307617188 c 0
 191.836914062 228.267578125 200 305.818359375 251.020507812 397.655273438 c 0
 306.122070312 497.655273438 367.346679688 518.063476562 367.346679688 438.471679688 c 0
 367.346679688 409.899414062 359.18359375 389.4921875 351.020507812 395.614257812 c 0
 287.754882812 434.389648438 230.612304688 179.288085938 287.754882812 109.899414062 c 0
 330.612304688 56.8388671875 404.08203125 38.4716796875 455.1015625 67.04296875 c 0
 516.326171875 101.736328125 524.490234375 116.022460938 540.81640625 220.103515625 c 0
 548.979492188 269.083984375 559.18359375 322.14453125 565.305664062 336.430664062 c 0
 571.428710938 352.756835938 557.142578125 367.04296875 528.571289062 371.124023438 c 0
 446.938476562 383.369140625 434.694335938 436.430664062 502.041015625 505.818359375 c 0
624.490234375 199.696289062 m 0
 632.653320312 238.471679688 628.571289062 265.001953125 618.3671875 265.001953125 c 0
 595.91796875 265.001953125 563.265625 142.552734375 581.6328125 126.2265625 c 0
 597.958984375 109.899414062 610.204101562 130.307617188 624.490234375 199.696289062 c 0
EndSplineSet
EndChar

StartChar: f
Encoding: 102 102 4
Width: 600
VWidth: 1032
Flags: HW
LayerCount: 2
Fore
SplineSet
252.94140625 672.313476562 m 0
 263.235351562 679.666015625 282.352539062 685.548828125 294.1171875 685.548828125 c 0
 335.293945312 685.548828125 426.470703125 654.666015625 426.470703125 641.430664062 c 0
 426.470703125 623.784179688 402.94140625 622.313476562 344.1171875 639.959960938 c 0
 273.529296875 660.548828125 258.823242188 642.901367188 270.587890625 547.313476562 c 0
 277.94140625 489.959960938 288.235351562 464.959960938 302.94140625 464.959960938 c 0
 326.470703125 464.959960938 326.470703125 464.959960938 323.529296875 325.254882812 c 2
 322.05859375 220.842773438 l 1
 461.764648438 226.724609375 l 2
 647.05859375 235.548828125 650 207.607421875 467.647460938 191.430664062 c 2
 330.8828125 178.1953125 l 1
 336.764648438 84.078125 l 2
 342.647460938 -32.0986328125 316.176757812 -26.2158203125 301.470703125 91.4306640625 c 2
 291.176757812 173.784179688 l 1
 211.764648438 163.490234375 l 2
 161.764648438 157.607421875 132.352539062 159.078125 132.352539062 169.372070312 c 0
 132.352539062 189.959960938 147.05859375 197.313476562 205.8828125 201.724609375 c 0
 233.823242188 204.666015625 266.176757812 212.01953125 276.470703125 219.372070312 c 0
 300 237.01953125 298.529296875 295.842773438 273.529296875 369.372070312 c 0
 241.176757812 462.01953125 227.94140625 657.607421875 252.94140625 672.313476562 c 0
EndSplineSet
EndChar

StartChar: o
Encoding: 111 111 5
Width: 600
VWidth: 912
Flags: HW
LayerCount: 2
Fore
SplineSet
400 450.466796875 m 0
 516.666992188 509.990234375 540.4765625 509.990234375 650 433.799804688 c 2
 742.857421875 369.513671875 l 1
 728.571289062 236.180664062 l 2
 707.142578125 50.466796875 602.380859375 -25.724609375 419.047851562 7.609375 c 0
 304.76171875 29.0380859375 238.095703125 90.9423828125 223.809570312 188.561523438 c 0
 207.142578125 288.561523438 269.047851562 381.418945312 400 450.466796875 c 0
547.619140625 429.038085938 m 0
 547.619140625 462.37109375 521.428710938 455.228515625 414.286132812 390.942382812 c 0
 300 324.275390625 252.380859375 238.561523438 285.713867188 155.228515625 c 0
 326.190429688 45.7041015625 590.4765625 17.1328125 642.857421875 119.513671875 c 0
 673.809570312 174.275390625 673.809570312 348.084960938 642.857421875 367.1328125 c 0
 630.952148438 374.275390625 600 369.513671875 573.809570312 355.228515625 c 0
 526.190429688 331.418945312 478.571289062 362.37109375 523.809570312 390.942382812 c 0
 535.713867188 398.084960938 547.619140625 414.751953125 547.619140625 429.038085938 c 0
EndSplineSet
EndChar

StartChar: q
Encoding: 113 113 6
Width: 600
VWidth: 809
Flags: HW
LayerCount: 2
Fore
SplineSet
178.125 411.3203125 m 0
 206.25 478.5078125 214.0625 480.0703125 287.5 434.7578125 c 0
 357.8125 389.4453125 370.3125 331.6328125 335.9375 226.9453125 c 0
 307.8125 147.2578125 306.25 136.3203125 289.0625 -33.9921875 c 0
 275 -163.6796875 284.375 -180.8671875 346.875 -135.5546875 c 0
 390.625 -104.3046875 567.1875 119.1328125 582.8125 162.8828125 c 0
 585.9375 172.2578125 595.3125 175.3828125 601.5625 169.1328125 c 0
 618.75 153.5078125 481.25 -62.1171875 403.125 -138.6796875 c 0
 354.6875 -187.1171875 328.125 -202.7421875 298.4375 -199.6171875 c 0
 257.8125 -194.9296875 257.8125 -193.3671875 257.8125 -69.9296875 c 0
 257.8125 -1.1796875 264.0625 87.8828125 271.875 130.0703125 c 2
 284.375 203.5078125 l 1
 237.5 203.5078125 l 2
 140.625 203.5078125 120.3125 273.8203125 178.125 411.3203125 c 0
284.375 383.1953125 m 0
 270.3125 405.0703125 248.4375 422.2578125 237.5 422.2578125 c 0
 196.875 422.2578125 167.1875 264.4453125 204.6875 242.5703125 c 0
 212.5 236.3203125 237.5 236.3203125 256.25 241.0078125 c 0
 306.25 253.5078125 321.875 333.1953125 284.375 383.1953125 c 0
EndSplineSet
EndChar

StartChar: a
Encoding: 97 97 7
Width: 600
VWidth: 793
Flags: HW
LayerCount: 2
Fore
SplineSet
240 373.4765625 m 0
 298 431.4765625 390 415.4765625 468 331.4765625 c 0
 516 277.4765625 522 255.4765625 514 189.4765625 c 0
 506 127.4765625 512 107.4765625 546 83.4765625 c 0
 570 67.4765625 616 53.4765625 650 51.4765625 c 0
 682 51.4765625 728 43.4765625 750 33.4765625 c 0
 788 19.4765625 788 17.4765625 754 3.4765625 c 0
 734 -4.5234375 662 1.4765625 594 19.4765625 c 0
 516 37.4765625 458 43.4765625 436 31.4765625 c 0
 378 -0.5234375 288 11.4765625 250 53.4765625 c 0
 226 81.4765625 210 135.4765625 204 211.4765625 c 0
 196 313.4765625 202 335.4765625 240 373.4765625 c 0
396 329.4765625 m 0
 370 359.4765625 296 361.4765625 264 329.4765625 c 0
 230 295.4765625 234 161.4765625 272 103.4765625 c 0
 306 51.4765625 376 37.4765625 412 73.4765625 c 0
 438 99.4765625 424 291.4765625 396 329.4765625 c 0
EndSplineSet
EndChar

StartChar: y
Encoding: 121 121 8
Width: 600
VWidth: 790
Flags: HW
LayerCount: 2
Fore
SplineSet
413.79296875 371.03515625 m 0
 413.79296875 415.86328125 420.689453125 434.828125 439.655273438 434.828125 c 0
 481.034179688 434.828125 487.930664062 327.931640625 456.896484375 196.897460938 c 0
 436.20703125 117.586914062 429.310546875 29.65625 432.758789062 -63.447265625 c 0
 439.655273438 -182.413085938 436.20703125 -203.102539062 413.79296875 -199.654296875 c 0
 393.103515625 -194.481445312 387.930664062 -159.999023438 387.930664062 -4.826171875 c 2
 387.930664062 184.828125 l 1
 324.137695312 195.173828125 l 2
 289.655273438 200.345703125 248.275390625 215.86328125 232.758789062 227.931640625 c 0
 167.241210938 281.379882812 129.310546875 417.586914062 179.310546875 417.586914062 c 0
 205.172851562 417.586914062 224.137695312 381.379882812 224.137695312 331.379882812 c 0
 224.137695312 290.000976562 303.448242188 227.931640625 353.448242188 227.931640625 c 0
 396.551757812 227.931640625 413.79296875 265.86328125 413.79296875 371.03515625 c 0
EndSplineSet
EndChar

StartChar: J
Encoding: 74 74 9
Width: 600
VWidth: 924
Flags: HW
LayerCount: 2
Fore
SplineSet
250.909179688 530.100585938 m 0
 432.727539062 557.374023438 800 526.46484375 800 482.828125 c 0
 800 473.737304688 758.181640625 468.283203125 700 473.737304688 c 0
 643.63671875 479.192382812 594.545898438 475.555664062 589.090820312 468.283203125 c 0
 585.454101562 461.009765625 601.818359375 393.737304688 627.272460938 321.009765625 c 0
 652.727539062 248.283203125 681.818359375 157.374023438 689.090820312 119.192382812 c 0
 703.63671875 57.3740234375 701.818359375 48.283203125 661.818359375 21.009765625 c 0
 629.090820312 -0.8076171875 592.727539062 -4.4443359375 512.727539062 4.646484375 c 0
 309.090820312 24.646484375 272.727539062 35.5556640625 272.727539062 71.9189453125 c 0
 272.727539062 90.1005859375 265.454101562 110.100585938 254.545898438 115.555664062 c 0
 230.909179688 130.100585938 230.909179688 179.192382812 254.545898438 179.192382812 c 0
 265.454101562 179.192382812 272.727539062 168.283203125 272.727539062 153.737304688 c 0
 272.727539062 139.192382812 290.909179688 113.737304688 312.727539062 99.1923828125 c 0
 365.454101562 62.828125 654.545898438 57.3740234375 654.545898438 93.7373046875 c 0
 654.545898438 104.646484375 629.090820312 184.646484375 600 270.100585938 c 0
 569.090820312 353.737304688 545.454101562 437.374023438 545.454101562 453.737304688 c 0
 545.454101562 470.100585938 532.727539062 490.100585938 516.36328125 495.555664062 c 0
 476.36328125 510.100585938 343.63671875 506.46484375 300 488.283203125 c 0
 267.272460938 475.555664062 267.272460938 473.737304688 314.545898438 461.009765625 c 0
 394.545898438 439.192382812 370.909179688 417.374023438 287.272460938 435.555664062 c 0
 163.63671875 462.828125 156.36328125 466.46484375 181.818359375 497.374023438 c 0
 192.727539062 510.100585938 225.454101562 526.46484375 250.909179688 530.100585938 c 0
EndSplineSet
EndChar

StartChar: M
Encoding: 77 77 10
Width: 600
VWidth: 915
Flags: HW
LayerCount: 2
Fore
SplineSet
236.734375 484.400390625 m 0
 255.1015625 553.788085938 269.387695312 543.583984375 324.490234375 427.2578125 c 0
 353.061523438 372.155273438 393.877929688 310.930664062 416.326171875 294.604492188 c 0
 495.91796875 239.502929688 524.490234375 257.870117188 575.509765625 398.686523438 c 0
 600 472.155273438 632.653320312 531.338867188 646.938476562 531.338867188 c 0
 677.55078125 531.338867188 714.286132812 404.80859375 714.286132812 296.645507812 c 0
 714.286132812 215.012695312 736.734375 104.80859375 765.305664062 33.3798828125 c 0
 777.55078125 4.80859375 773.469726562 -1.3134765625 753.061523438 4.80859375 c 0
 720.408203125 15.0126953125 681.6328125 145.625 663.265625 312.971679688 c 0
 648.979492188 447.666015625 622.44921875 463.9921875 602.041015625 353.788085938 c 0
 581.6328125 241.54296875 555.1015625 204.80859375 500 204.80859375 c 0
 453.061523438 204.80859375 340.81640625 298.686523438 291.836914062 378.278320312 c 0
 271.428710938 410.930664062 267.346679688 380.318359375 267.346679688 210.930664062 c 0
 265.305664062 0.7265625 238.775390625 -66.6201171875 212.245117188 74.1962890625 c 0
 197.958984375 147.666015625 214.286132812 388.482421875 236.734375 484.400390625 c 0
EndSplineSet
EndChar

StartChar: P
Encoding: 80 80 11
Width: 600
VWidth: 1006
Flags: HW
LayerCount: 2
Fore
SplineSet
273.684570312 630.793945312 m 0
 354.385742188 646.583007812 414.03515625 637.811523438 471.9296875 600.969726562 c 0
 508.771484375 578.162109375 512.280273438 564.126953125 505.262695312 483.42578125 c 0
 494.737304688 358.864257812 412.280273438 253.600585938 312.280273438 237.811523438 c 0
 268.420898438 230.793945312 261.403320312 188.688476562 285.96484375 65.8818359375 c 0
 303.508789062 -14.8203125 275.438476562 -23.591796875 247.368164062 51.8466796875 c 0
 219.297851562 134.302734375 201.75390625 367.635742188 224.561523438 367.635742188 c 0
 235.087890625 367.635742188 245.614257812 350.091796875 249.123046875 329.0390625 c 0
 261.403320312 246.583007812 373.684570312 283.42578125 438.596679688 390.443359375 c 0
 478.947265625 455.35546875 484.2109375 530.793945312 450.876953125 557.109375 c 0
 380.702148438 615.00390625 217.543945312 590.443359375 207.017578125 520.267578125 c 2
 201.75390625 481.670898438 l 1
 180.702148438 518.512695312 l 2
 150.876953125 571.14453125 185.96484375 615.00390625 273.684570312 630.793945312 c 0
EndSplineSet
EndChar

StartChar: E
Encoding: 69 69 12
Width: 600
VWidth: 990
Flags: HW
LayerCount: 2
Fore
SplineSet
222.641601562 581.448242188 m 0
 275.471679688 613.5234375 407.546875 605.9765625 449.056640625 570.126953125 c 0
 490.56640625 534.278320312 513.208007812 453.145507812 481.131835938 451.258789062 c 0
 471.698242188 451.258789062 460.376953125 466.353515625 456.603515625 488.995117188 c 0
 449.056640625 539.938476562 386.791992188 570.126953125 320.754882812 555.033203125 c 0
 241.509765625 538.051757812 213.208007812 496.541992188 250.943359375 455.033203125 c 0
 266.038085938 438.051757812 283.018554688 398.428710938 286.791992188 366.353515625 c 0
 292.453125 315.41015625 300 309.75 367.924804688 304.08984375 c 0
 496.2265625 296.541992188 566.038085938 281.448242188 566.038085938 258.806640625 c 0
 566.038085938 245.598632812 535.848632812 243.711914062 481.131835938 253.145507812 c 0
 432.075195312 258.806640625 369.811523438 258.806640625 339.623046875 253.145507812 c 0
 286.791992188 241.825195312 283.018554688 234.278320312 283.018554688 158.806640625 c 2
 283.018554688 75.787109375 l 1
 439.623046875 83.3349609375 l 1
 594.33984375 92.7685546875 l 1
 443.396484375 47.4853515625 l 2
 252.830078125 -11.0048828125 200 -14.7783203125 224.528320312 32.3916015625 c 0
 249.056640625 79.5615234375 226.415039062 243.711914062 192.453125 256.919921875 c 0
 171.698242188 266.353515625 173.584960938 275.787109375 209.43359375 302.202148438 c 0
 252.830078125 334.278320312 252.830078125 336.165039062 220.754882812 404.08984375 c 0
 179.245117188 490.881835938 179.245117188 556.919921875 222.641601562 581.448242188 c 0
EndSplineSet
EndChar

StartChar: v
Encoding: 118 118 13
Width: 600
VWidth: 864
Flags: HW
LayerCount: 2
Fore
SplineSet
681.25 397.689453125 m 0
 697.916992188 441.439453125 720.833007812 476.856445312 731.25 476.856445312 c 0
 758.333007812 476.856445312 754.166992188 451.856445312 710.416992188 306.0234375 c 0
 687.5 233.106445312 662.5 137.2734375 652.083007812 91.439453125 c 0
 625 -43.9765625 575 -31.4765625 414.583007812 145.606445312 c 2
 275 299.7734375 l 1
 260.416992188 222.689453125 l 2
 252.083007812 178.939453125 237.5 143.5234375 227.083007812 143.5234375 c 0
 197.916992188 143.5234375 204.166992188 276.856445312 235.416992188 318.5234375 c 0
 279.166992188 376.856445312 333.333007812 345.606445312 443.75 195.606445312 c 0
 497.916992188 120.606445312 556.25 60.189453125 570.833007812 60.189453125 c 0
 587.5 60.189453125 608.333007812 108.106445312 625 189.356445312 c 0
 637.5 260.189453125 664.583007812 353.939453125 681.25 397.689453125 c 0
EndSplineSet
EndChar

StartChar: h
Encoding: 104 104 14
Width: 600
VWidth: 1006
Flags: HW
LayerCount: 2
Fore
SplineSet
187.096679688 637.096679688 m 0
 206.451171875 687.096679688 227.418945312 640.322265625 219.354492188 566.12890625 c 0
 201.61328125 432.2578125 193.548828125 303.225585938 201.61328125 288.708984375 c 0
 206.451171875 280.64453125 224.193359375 282.2578125 240.322265625 293.547851562 c 0
 295.161132812 327.418945312 346.774414062 295.161132812 441.935546875 169.354492188 c 0
 491.935546875 103.225585938 532.2578125 38.708984375 532.2578125 24.193359375 c 0
 532.2578125 4.837890625 506.451171875 0 390.322265625 0 c 0
 204.838867188 0 195.161132812 9.6767578125 174.193359375 212.90234375 c 0
 159.677734375 354.837890625 166.12890625 582.2578125 187.096679688 637.096679688 c 0
400 159.676757812 m 0
 350 222.580078125 311.290039062 258.064453125 290.322265625 258.064453125 c 0
 250 258.064453125 241.935546875 241.934570312 237.096679688 129.032226562 c 2
 233.87109375 40.322265625 l 1
 359.677734375 35.4833984375 l 2
 435.483398438 32.2578125 485.483398438 37.0966796875 480.645507812 46.7734375 c 0
 479.032226562 54.837890625 441.935546875 106.451171875 400 159.676757812 c 0
EndSplineSet
EndChar

StartChar: c
Encoding: 99 99 15
Width: 600
VWidth: 907
Flags: HW
LayerCount: 2
Fore
SplineSet
307.317382812 436.5859375 m 0
 343.90234375 465.853515625 380.48828125 487.805664062 392.682617188 487.805664062 c 0
 429.268554688 487.805664062 560.975585938 360.975585938 560.975585938 321.951171875 c 0
 560.975585938 292.68359375 543.90234375 300 490.244140625 351.219726562 c 0
 395.122070312 441.463867188 317.073242188 421.951171875 317.073242188 309.756835938 c 0
 319.51171875 182.926757812 436.584960938 73.1708984375 568.29296875 73.1708984375 c 0
 602.439453125 73.1708984375 641.463867188 56.09765625 658.536132812 36.5859375 c 0
 685.366210938 4.8779296875 675.609375 0 600 0 c 0
 336.584960938 0 136.584960938 302.439453125 307.317382812 436.5859375 c 0
EndSplineSet
EndChar

StartChar: d
Encoding: 100 100 16
Width: 600
VWidth: 996
Flags: HW
LayerCount: 2
Fore
SplineSet
333.8984375 513.559570312 m 0
 340.677734375 596.610351562 350.84765625 627.119140625 367.796875 627.119140625 c 0
 388.135742188 627.119140625 391.525390625 608.474609375 377.965820312 522.034179688 c 0
 361.016601562 386.440429688 361.016601562 227.119140625 377.965820312 157.626953125 c 0
 396.610351562 83.05078125 369.491210938 84.74609375 323.728515625 161.017578125 c 0
 288.135742188 220.338867188 264.407226562 232.203125 222.034179688 205.084960938 c 0
 159.322265625 166.1015625 298.3046875 64.4072265625 445.762695312 42.373046875 c 0
 532.203125 28.8134765625 554.237304688 0 477.965820312 0 c 0
 398.3046875 0 262.711914062 47.4580078125 215.25390625 91.525390625 c 0
 133.8984375 167.796875 172.881835938 284.74609375 274.576171875 264.407226562 c 0
 320.338867188 255.932617188 322.034179688 257.626953125 322.034179688 327.119140625 c 0
 322.034179688 366.1015625 327.118164062 449.15234375 333.8984375 513.559570312 c 0
EndSplineSet
EndChar

StartChar: H
Encoding: 72 72 17
Width: 600
VWidth: 982
Flags: HW
LayerCount: 2
Fore
SplineSet
498 548.293945312 m 0
 498 568.293945312 512 582.293945312 526 576.293945312 c 0
 542 572.293945312 550 506.293945312 552 350.293945312 c 0
 552 230.293945312 564 106.293945312 578 74.2939453125 c 0
 590 42.2939453125 596 10.2939453125 588 4.2939453125 c 0
 562 -21.7060546875 520 74.2939453125 508 186.293945312 c 2
 494 306.293945312 l 1
 426 292.293945312 l 2
 386 286.293945312 334 270.293945312 306 260.293945312 c 0
 260 242.293945312 256 234.293945312 270 152.293945312 c 0
 282 64.2939453125 262 32.2939453125 228 86.2939453125 c 0
 202 128.293945312 202 524.293945312 228 516.293945312 c 0
 240 512.293945312 252 466.293945312 256 414.293945312 c 2
 262 318.293945312 l 1
 356 332.293945312 l 2
 486 350.293945312 482 342.293945312 498 548.293945312 c 0
EndSplineSet
EndChar

StartChar: x
Encoding: 120 120 18
Width: 600
VWidth: 840
Flags: HW
LayerCount: 2
Fore
SplineSet
200 392.028320312 m 0
 200 428.028320312 210 440.028320312 242 440.028320312 c 0
 294 440.028320312 364 404.028320312 396 356.028320312 c 0
 416 328.028320312 430 324.028320312 460 340.028320312 c 0
 514 370.028320312 580 364.028320312 580 332.028320312 c 0
 580 316.028320312 562 296.028320312 540 290.028320312 c 0
 500 278.028320312 488 216.028320312 512 150.028320312 c 0
 530 104.028320312 626 60.0283203125 710 60.0283203125 c 0
 758 60.0283203125 780 52.0283203125 780 30.0283203125 c 0
 780 -5.9716796875 676 -9.9716796875 586 20.0283203125 c 0
 524 42.0283203125 440 164.028320312 440 232.028320312 c 0
 440 294.028320312 412 242.028320312 402 154.028320312 c 0
 394 96.0283203125 380 68.0283203125 356 64.0283203125 c 0
 328 58.0283203125 320 70.0283203125 320 120.028320312 c 0
 320 154.028320312 334 208.028320312 348 238.028320312 c 0
 374 288.028320312 374 300.028320312 348 338.028320312 c 0
 310 390.028320312 214 398.028320312 234 346.028320312 c 0
 242 324.028320312 240 318.028320312 224 328.028320312 c 0
 210 336.028320312 200 364.028320312 200 392.028320312 c 0
EndSplineSet
EndChar

StartChar: p
Encoding: 112 112 19
Width: 600
VWidth: 849
Flags: HW
LayerCount: 2
Fore
SplineSet
146.575195312 493.151367188 m 0
 157.534179688 520.547851562 232.876953125 516.438476562 283.561523438 484.931640625 c 0
 335.616210938 453.424804688 364.383789062 375.342773438 350.684570312 298.630859375 c 0
 339.725585938 245.206054688 276.711914062 169.86328125 242.465820312 169.86328125 c 0
 212.329101562 169.86328125 205.479492188 139.7265625 205.479492188 15.0693359375 c 0
 205.479492188 -106.848632812 193.150390625 -200 179.452148438 -200 c 0
 173.97265625 -200 169.86328125 -134.24609375 169.86328125 -53.423828125 c 0
 171.232421875 28.767578125 161.643554688 156.165039062 149.315429688 231.506835938 c 0
 136.986328125 306.849609375 128.767578125 371.233398438 131.506835938 373.97265625 c 0
 146.575195312 390.411132812 164.383789062 349.315429688 172.602539062 280.822265625 c 0
 184.931640625 169.86328125 194.520507812 156.165039062 241.095703125 191.78125 c 0
 295.890625 232.876953125 331.506835938 305.479492188 323.288085938 360.274414062 c 0
 315.068359375 417.80859375 265.75390625 471.233398438 221.91796875 471.233398438 c 0
 193.150390625 471.233398438 189.041015625 465.75390625 195.890625 436.986328125 c 0
 200 415.069335938 195.890625 404.110351562 186.301757812 406.849609375 c 0
 164.383789062 413.69921875 138.356445312 471.233398438 146.575195312 493.151367188 c 0
EndSplineSet
EndChar

StartChar: O
Encoding: 79 79 20
Width: 600
VWidth: 932
Flags: HW
LayerCount: 2
Fore
SplineSet
389.361328125 506.799804688 m 0
 438.297851562 523.821289062 491.489257812 538.71484375 506.3828125 538.71484375 c 0
 625.532226562 547.225585938 755.319335938 153.608398438 672.340820312 40.8427734375 c 0
 648.936523438 8.927734375 614.893554688 0.4169921875 478.723632812 0.4169921875 c 0
 325.532226562 -1.7109375 312.765625 2.544921875 270.212890625 55.736328125 c 0
 238.297851562 94.0341796875 221.276367188 149.353515625 217.021484375 221.693359375 c 0
 208.510742188 366.375 265.95703125 462.119140625 389.361328125 506.799804688 c 0
582.978515625 396.162109375 m 0
 544.680664062 468.501953125 538.297851562 470.629882812 436.169921875 455.736328125 c 0
 370.212890625 447.225585938 342.552734375 428.077148438 304.254882812 372.7578125 c 0
 244.680664062 283.395507812 242.552734375 215.310546875 297.872070312 136.586914062 c 0
 348.936523438 64.2470703125 485.106445312 34.4599609375 582.978515625 70.6298828125 c 0
 642.552734375 94.0341796875 642.552734375 96.162109375 627.659179688 217.438476562 c 0
 619.149414062 283.395507812 600 364.247070312 582.978515625 396.162109375 c 0
EndSplineSet
EndChar

StartChar: u
Encoding: 117 117 21
Width: 600
VWidth: 811
Flags: HW
LayerCount: 2
Fore
SplineSet
500 409.859375 m 0
 524.490234375 446.594726562 540.81640625 409.859375 561.224609375 279.247070312 c 2
 581.6328125 152.716796875 l 1
 683.673828125 120.063476562 l 2
 806.122070312 81.2880859375 775.509765625 50.67578125 642.857421875 81.2880859375 c 0
 555.1015625 101.696289062 542.857421875 99.6552734375 485.713867188 50.67578125 c 0
 402.041015625 -20.7529296875 322.44921875 -16.6708984375 257.142578125 62.9208984375 c 0
 228.571289062 97.6142578125 204.08203125 144.553710938 204.08203125 167.001953125 c 0
 204.08203125 238.430664062 251.020507812 369.04296875 273.469726562 360.879882812 c 0
 310.204101562 348.634765625 312.245117188 287.41015625 275.509765625 252.716796875 c 0
 210.204101562 185.370117188 277.55078125 54.7578125 379.591796875 56.798828125 c 0
 475.509765625 56.798828125 516.326171875 130.267578125 502.041015625 269.04296875 c 0
 493.877929688 334.349609375 493.877929688 397.614257812 500 409.859375 c 0
EndSplineSet
EndChar

StartChar: S
Encoding: 83 83 22
Width: 600
VWidth: 917
Flags: HW
LayerCount: 2
Fore
SplineSet
274.418945312 482.283203125 m 0
 325.581054688 512.515625 353.48828125 512.515625 427.907226562 484.608398438 c 0
 460.46484375 472.98046875 488.372070312 447.399414062 488.372070312 426.469726562 c 0
 488.372070312 386.934570312 451.163085938 379.958007812 430.232421875 414.841796875 c 0
 411.627929688 445.07421875 279.069335938 445.07421875 279.069335938 414.841796875 c 0
 279.069335938 403.213867188 311.627929688 375.306640625 351.163085938 356.702148438 c 0
 406.9765625 326.469726562 430.232421875 324.143554688 455.813476562 345.07421875 c 0
 481.395507812 368.330078125 490.697265625 366.00390625 502.325195312 333.446289062 c 0
 511.627929688 312.515625 544.186523438 268.330078125 574.418945312 238.09765625 c 0
 618.604492188 193.911132812 627.907226562 161.353515625 623.255859375 93.9111328125 c 2
 616.279296875 7.8642578125 l 1
 479.069335938 0.8876953125 l 2
 332.55859375 -6.0888671875 209.302734375 28.794921875 209.302734375 79.9580078125 c 0
 209.302734375 128.794921875 255.813476562 142.748046875 286.046875 103.213867188 c 0
 304.651367188 77.6318359375 355.813476562 63.6787109375 441.860351562 59.02734375 c 0
 567.44140625 54.3759765625 569.767578125 54.3759765625 569.767578125 119.4921875 c 0
 569.767578125 189.259765625 539.53515625 214.841796875 344.186523438 296.236328125 c 0
 253.48828125 333.446289062 232.55859375 352.05078125 232.55859375 400.887695312 c 0
 232.55859375 433.446289062 251.163085938 470.655273438 274.418945312 482.283203125 c 0
EndSplineSet
EndChar

StartChar: L
Encoding: 76 76 23
Width: 600
VWidth: 939
Flags: HW
LayerCount: 2
Fore
SplineSet
273.913085938 519.565429688 m 0
 280.434570312 543.478515625 291.3046875 543.478515625 308.6953125 526.086914062 c 0
 328.260742188 506.522460938 323.913085938 458.696289062 297.826171875 332.609375 c 0
 254.34765625 128.26171875 250 21.7392578125 289.130859375 21.7392578125 c 0
 302.173828125 21.7392578125 354.34765625 32.609375 400 45.65234375 c 0
 489.130859375 69.5654296875 717.391601562 54.3486328125 717.391601562 21.7392578125 c 0
 717.391601562 13.0439453125 604.34765625 4.3486328125 467.391601562 2.1748046875 c 2
 217.391601562 0 l 1
 217.391601562 130.435546875 l 2
 217.391601562 243.478515625 243.478515625 430.435546875 273.913085938 519.565429688 c 0
EndSplineSet
EndChar

StartChar: R
Encoding: 82 82 24
Width: 600
VWidth: 1007
Flags: HW
LayerCount: 2
Fore
SplineSet
280.702148438 636.841796875 m 0
 321.052734375 652.631835938 389.473632812 633.333007812 415.7890625 600 c 0
 468.420898438 531.579101562 478.947265625 494.737304688 475.438476562 364.912109375 c 0
 473.684570312 233.333007812 475.438476562 226.315429688 517.543945312 210.526367188 c 0
 570.17578125 191.228515625 684.2109375 103.508789062 684.2109375 84.2109375 c 0
 684.2109375 57.89453125 636.841796875 70.17578125 605.262695312 105.263671875 c 0
 559.649414062 156.140625 477.193359375 177.193359375 377.193359375 161.403320312 c 0
 305.262695312 150.876953125 291.228515625 142.10546875 294.737304688 115.7890625 c 0
 303.508789062 70.17578125 284.2109375 0 263.158203125 0 c 0
 252.631835938 0 245.614257812 35.087890625 245.614257812 75.4384765625 c 0
 245.614257812 117.543945312 240.350585938 224.561523438 235.087890625 312.280273438 c 0
 226.315429688 435.087890625 217.543945312 468.420898438 200 461.403320312 c 0
 182.456054688 454.385742188 175.438476562 468.420898438 175.438476562 503.508789062 c 0
 175.438476562 554.385742188 224.561523438 615.7890625 280.702148438 636.841796875 c 0
401.75390625 545.614257812 m 0
 380.702148438 577.193359375 350.876953125 596.491210938 324.561523438 596.491210938 c 0
 289.473632812 596.491210938 284.2109375 585.96484375 271.9296875 498.24609375 c 0
 264.912109375 443.859375 264.912109375 361.403320312 271.9296875 314.03515625 c 0
 284.2109375 228.0703125 284.2109375 228.0703125 350.876953125 228.0703125 c 0
 429.82421875 228.0703125 438.596679688 243.859375 438.596679688 389.473632812 c 0
 438.596679688 468.420898438 429.82421875 507.017578125 401.75390625 545.614257812 c 0
EndSplineSet
EndChar

StartChar: F
Encoding: 70 70 25
Width: 600
VWidth: 976
Flags: HW
LayerCount: 2
Fore
SplineSet
280.392578125 558.853515625 m 0
 352.94140625 605.913085938 394.1171875 609.833984375 427.451171875 576.500976562 c 0
 466.666992188 537.28515625 454.90234375 521.598632812 394.1171875 533.36328125 c 0
 309.803710938 551.010742188 225.490234375 464.736328125 243.137695312 380.422851562 c 0
 249.01953125 347.088867188 254.90234375 294.1484375 254.90234375 260.814453125 c 2
 254.90234375 201.991210938 l 1
 382.352539062 213.755859375 l 2
 521.568359375 227.481445312 592.157226562 215.716796875 545.09765625 186.3046875 c 0
 531.372070312 176.500976562 484.313476562 168.658203125 441.176757812 168.658203125 c 0
 294.1171875 166.697265625 270.587890625 152.971679688 278.431640625 68.658203125 c 0
 286.274414062 -25.4599609375 252.94140625 -21.5380859375 229.412109375 72.5791015625 c 0
 209.803710938 156.893554688 194.1171875 443.16796875 207.842773438 486.3046875 c 0
 213.725585938 503.952148438 245.09765625 537.28515625 280.392578125 558.853515625 c 0
EndSplineSet
EndChar

StartChar: n
Encoding: 110 110 26
Width: 600
VWidth: 905
Flags: HW
LayerCount: 2
Fore
SplineSet
371.111328125 443.338867188 m 0
 420 498.89453125 502.22265625 494.450195312 542.22265625 434.450195312 c 0
 560 405.561523438 595.555664062 316.672851562 622.22265625 232.228515625 c 0
 651.111328125 145.561523438 691.111328125 70.005859375 717.77734375 50.005859375 c 0
 768.888671875 14.4501953125 760 -14.4384765625 702.22265625 7.7841796875 c 0
 660 23.3388671875 600 132.228515625 531.111328125 316.672851562 c 0
 506.666992188 383.338867188 477.77734375 438.89453125 468.888671875 438.89453125 c 0
 393.333007812 438.89453125 331.111328125 285.561523438 344.444335938 136.672851562 c 0
 348.888671875 94.4501953125 346.666992188 61.1171875 342.22265625 61.1171875 c 0
 320 61.1171875 255.555664062 218.89453125 233.333007812 334.450195312 c 0
 208.888671875 441.1171875 211.111328125 461.1171875 235.555664062 461.1171875 c 0
 253.333007812 461.1171875 273.333007812 432.228515625 282.22265625 394.450195312 c 0
 295.555664062 323.338867188 333.333007812 303.338867188 333.333007812 365.561523438 c 0
 333.333007812 385.561523438 348.888671875 421.1171875 371.111328125 443.338867188 c 0
EndSplineSet
EndChar

StartChar: m
Encoding: 109 109 27
Width: 600
VWidth: 780
Flags: HW
LayerCount: 2
Fore
SplineSet
200 356 m 0
 200 382 212 400 230 400 c 0
 254 400 258 386 248 346 c 0
 234 292 236 290 274 326 c 0
 322 368 338 368 382 328 c 0
 416 298 422 300 478 338 c 0
 510 362 560 380 588 380 c 0
 652 380 732 306 752 232 c 0
 770 156 744 0 712 0 c 0
 690 0 688 20 704 94 c 0
 728 202 690 308 618 330 c 0
 564 348 472 284 464 222 c 0
 454 160 412 170 386 240 c 0
 356 318 328 316 292 230 c 0
 276 192 254 160 244 160 c 0
 226 160 200 270 200 356 c 0
EndSplineSet
EndChar

StartChar: t
Encoding: 116 116 28
Width: 600
VWidth: 984
Flags: HW
LayerCount: 2
Fore
SplineSet
274.509765625 450.98046875 m 0
 274.509765625 652.94140625 309.803710938 656.862304688 317.647460938 456.862304688 c 2
 323.529296875 303.920898438 l 1
 431.372070312 303.920898438 l 2
 490.196289062 303.920898438 572.548828125 311.764648438 615.686523438 319.607421875 c 0
 672.548828125 331.372070312 688.235351562 329.411132812 682.352539062 309.803710938 c 0
 672.548828125 284.313476562 607.842773438 266.666015625 447.05859375 245.09765625 c 0
 339.215820312 231.372070312 329.412109375 205.881835938 400 123.529296875 c 0
 443.137695312 74.509765625 452.94140625 70.587890625 490.196289062 94.1171875 c 0
 523.529296875 113.725585938 531.372070312 113.725585938 541.176757812 88.2353515625 c 0
 556.862304688 49.01953125 515.686523438 0 468.627929688 0 c 0
 429.412109375 0 347.05859375 96.078125 315.686523438 180.391601562 c 0
 301.9609375 215.685546875 280.392578125 235.293945312 243.137695312 239.215820312 c 0
 172.548828125 247.05859375 156.862304688 294.1171875 223.529296875 294.1171875 c 0
 274.509765625 294.1171875 274.509765625 296.078125 274.509765625 450.98046875 c 0
EndSplineSet
EndChar

StartChar: b
Encoding: 98 98 29
Width: 600
VWidth: 981
Flags: HW
LayerCount: 2
Fore
SplineSet
189.090820312 501.818359375 m 0
 178.181640625 601.818359375 180 621.818359375 201.818359375 614.545898438 c 0
 216.36328125 609.090820312 227.272460938 580 229.090820312 543.63671875 c 0
 232.727539062 467.272460938 269.090820312 290.909179688 289.090820312 258.181640625 c 0
 300 240 307.272460938 240 327.272460938 263.63671875 c 0
 376.36328125 323.63671875 496.36328125 270.909179688 538.181640625 169.090820312 c 0
 570.909179688 90.9091796875 570.909179688 80 527.272460938 36.3642578125 c 0
 503.63671875 12.7275390625 467.272460938 0 420 0 c 0
 321.818359375 0 290.909179688 14.5458984375 290.909179688 61.818359375 c 0
 290.909179688 81.818359375 270.909179688 163.63671875 245.454101562 240 c 0
 221.818359375 316.364257812 196.36328125 434.545898438 189.090820312 501.818359375 c 0
463.63671875 190.909179688 m 0
 440 216.364257812 412.727539062 236.364257812 403.63671875 236.364257812 c 0
 370.909179688 236.364257812 345.454101562 185.455078125 340 116.364257812 c 0
 336.36328125 56.3642578125 341.818359375 45.455078125 374.545898438 40 c 0
 394.545898438 36.3642578125 432.727539062 43.63671875 460 52.7275390625 c 0
 521.818359375 76.3642578125 523.63671875 132.727539062 463.63671875 190.909179688 c 0
EndSplineSet
EndChar

StartChar: Q
Encoding: 81 81 30
Width: 600
VWidth: 935
Flags: HW
LayerCount: 2
Fore
SplineSet
424.528320312 516.456054688 m 0
 456.603515625 531.55078125 498.11328125 542.87109375 516.981445312 540.984375 c 0
 616.981445312 531.55078125 673.584960938 310.795898438 607.546875 184.380859375 c 2
 571.698242188 114.569335938 l 1
 630.188476562 86.267578125 l 2
 662.263671875 71.1728515625 711.3203125 52.3056640625 741.509765625 46.64453125 c 0
 769.811523438 39.09765625 798.11328125 25.890625 803.7734375 16.4560546875 c 0
 820.754882812 -11.845703125 720.754882812 -2.412109375 624.528320312 35.32421875 c 0
 552.830078125 61.7392578125 500 67.3994140625 409.43359375 61.7392578125 c 0
 294.33984375 52.3056640625 288.6796875 52.3056640625 239.623046875 112.682617188 c 0
 149.056640625 218.342773438 192.453125 401.362304688 320.754882812 465.512695312 c 0
 347.169921875 478.720703125 394.33984375 501.362304688 424.528320312 516.456054688 c 0
566.038085938 454.192382812 m 0
 554.716796875 473.060546875 532.075195312 490.041015625 515.094726562 490.041015625 c 0
 490.56640625 490.041015625 490.56640625 484.380859375 509.43359375 461.739257812 c 0
 530.188476562 437.2109375 522.641601562 435.32421875 449.056640625 444.7578125 c 0
 373.584960938 456.079101562 362.263671875 450.418945312 305.66015625 393.814453125 c 0
 271.698242188 357.965820312 239.623046875 310.795898438 232.075195312 284.380859375 c 0
 203.7734375 174.947265625 301.88671875 78.720703125 416.981445312 103.249023438 c 0
 466.038085938 114.569335938 473.584960938 122.116210938 462.263671875 156.079101562 c 0
 430.188476562 259.852539062 430.188476562 282.494140625 458.490234375 282.494140625 c 0
 473.584960938 282.494140625 490.56640625 257.965820312 498.11328125 225.890625 c 0
 511.3203125 159.852539062 556.603515625 150.418945312 573.584960938 212.682617188 c 0
 590.56640625 278.720703125 586.791992188 412.682617188 566.038085938 454.192382812 c 0
EndSplineSet
EndChar

StartChar: s
Encoding: 115 115 31
Width: 600
VWidth: 936
Flags: HW
LayerCount: 2
Fore
SplineSet
293.0234375 452.654296875 m 0
 339.53515625 520.095703125 462.791015625 522.421875 537.208984375 454.979492188 c 2
 593.0234375 406.142578125 l 1
 534.883789062 422.421875 l 2
 381.395507812 464.282226562 353.48828125 461.956054688 325.581054688 413.119140625 c 0
 293.0234375 350.328125 306.9765625 327.072265625 390.697265625 310.793945312 c 0
 493.0234375 289.86328125 581.395507812 208.467773438 581.395507812 134.049804688 c 0
 581.395507812 78.2353515625 565.116210938 61.9560546875 476.744140625 27.072265625 c 0
 388.372070312 -5.4853515625 358.139648438 -7.8115234375 302.325195312 15.4443359375 c 0
 227.907226562 45.677734375 190.697265625 122.421875 230.232421875 161.956054688 c 0
 246.51171875 178.235351562 260.46484375 166.607421875 276.744140625 124.747070312 c 0
 297.674804688 73.583984375 316.279296875 61.9560546875 379.069335938 61.9560546875 c 0
 420.930664062 61.9560546875 474.418945312 75.91015625 497.674804688 92.1884765625 c 0
 560.46484375 136.375 511.627929688 213.119140625 402.325195312 250.328125 c 0
 248.836914062 299.166015625 220.930664062 350.328125 293.0234375 452.654296875 c 0
EndSplineSet
EndChar

StartChar: z
Encoding: 122 122 32
Width: 600
VWidth: 759
Flags: HW
LayerCount: 2
Fore
SplineSet
167.857421875 378.732421875 m 0
 175 387.661132812 217.857421875 384.08984375 273.213867188 369.803710938 c 0
 323.213867188 355.518554688 416.071289062 344.803710938 476.786132812 346.58984375 c 0
 539.286132812 348.375976562 594.642578125 346.58984375 600 341.232421875 c 0
 605.357421875 335.875976562 564.286132812 271.58984375 507.142578125 200.161132812 c 2
 407.142578125 68.0185546875 l 1
 600 59.08984375 l 2
 725 53.732421875 794.642578125 43.0185546875 798.213867188 28.732421875 c 0
 803.571289062 12.6611328125 748.213867188 5.5185546875 594.642578125 1.947265625 c 0
 478.571289062 -1.6240234375 366.071289062 0.1611328125 344.642578125 3.732421875 c 0
 300 10.8759765625 289.286132812 50.1611328125 328.571289062 64.447265625 c 0
 351.786132812 73.3759765625 517.857421875 282.303710938 517.857421875 303.732421875 c 0
 517.857421875 309.08984375 471.428710938 309.08984375 414.286132812 303.732421875 c 0
 266.071289062 287.661132812 137.5 328.732421875 167.857421875 378.732421875 c 0
EndSplineSet
EndChar

StartChar: l
Encoding: 108 108 33
Width: 600
VWidth: 1018
Flags: HW
LayerCount: 2
Fore
SplineSet
232.787109375 651.39453125 m 0
 242.623046875 661.23046875 252.458984375 671.06640625 254.098632812 671.06640625 c 0
 255.737304688 671.06640625 254.098632812 616.967773438 250.819335938 553.033203125 c 0
 242.623046875 420.247070312 268.852539062 423.525390625 288.524414062 556.3125 c 0
 295.08203125 597.295898438 304.91796875 641.55859375 313.115234375 654.672851562 c 0
 336.065429688 695.65625 331.147460938 603.853515625 301.639648438 459.590820312 c 2
 275.41015625 330.083007812 l 1
 359.016601562 164.508789062 l 2
 459.016601562 -35.4912109375 434.42578125 -61.720703125 329.5078125 133.361328125 c 0
 257.376953125 266.1484375 255.737304688 267.788085938 242.623046875 220.247070312 c 0
 214.75390625 130.083007812 175.41015625 48.115234375 159.016601562 48.115234375 c 0
 142.623046875 48.115234375 144.262695312 56.3125 203.278320312 218.607421875 c 0
 244.262695312 330.083007812 244.262695312 335.000976562 219.671875 421.885742188 c 0
 193.442382812 512.049804688 198.360351562 608.771484375 232.787109375 651.39453125 c 0
EndSplineSet
EndChar

StartChar: N
Encoding: 78 78 34
Width: 600
VWidth: 882
Flags: HW
LayerCount: 2
Fore
SplineSet
246.666992188 344.67578125 m 0
 260 420.23046875 280 482.453125 288.888671875 482.453125 c 0
 328.888671875 482.453125 466.666992188 298.008789062 504.444335938 195.786132812 c 0
 526.666992188 133.564453125 553.333007812 84.67578125 566.666992188 89.1201171875 c 0
 600 100.23046875 706.666992188 393.564453125 695.555664062 440.23046875 c 0
 686.666992188 469.120117188 695.555664062 482.453125 720 482.453125 c 0
 740 482.453125 755.555664062 469.120117188 755.555664062 455.786132812 c 0
 755.555664062 409.120117188 644.444335938 98.0087890625 608.888671875 44.67578125 c 0
 577.77734375 -4.2138671875 511.111328125 -4.2138671875 511.111328125 46.8974609375 c 0
 511.111328125 89.1201171875 386.666992188 335.786132812 348.888671875 366.897460938 c 0
 302.22265625 406.897460938 293.333007812 382.453125 275.555664062 173.564453125 c 0
 264.444335938 55.7861328125 251.111328125 -4.2138671875 235.555664062 0.23046875 c 0
 206.666992188 11.341796875 211.111328125 146.897460938 246.666992188 344.67578125 c 0
EndSplineSet
EndChar

StartChar: B
Encoding: 66 66 35
Width: 600
VWidth: 992
Flags: HW
LayerCount: 2
Fore
SplineSet
221.818359375 588.892578125 m 0
 243.63671875 599.801757812 300 607.075195312 345.454101562 605.256835938 c 0
 425.454101562 601.620117188 427.272460938 601.620117188 432.727539062 532.529296875 c 0
 436.36328125 487.075195312 425.454101562 441.620117188 401.818359375 399.801757812 c 0
 354.545898438 321.620117188 354.545898438 319.801757812 401.818359375 319.801757812 c 0
 489.090820312 319.801757812 561.818359375 250.7109375 563.63671875 165.256835938 c 0
 563.63671875 134.34765625 572.727539062 99.8017578125 585.454101562 87.0751953125 c 0
 601.818359375 70.7109375 598.181640625 63.4384765625 570.909179688 54.34765625 c 0
 552.727539062 48.892578125 514.545898438 36.166015625 487.272460938 25.2568359375 c 0
 461.818359375 16.166015625 412.727539062 10.7109375 378.181640625 12.529296875 c 0
 345.454101562 16.166015625 307.272460938 12.529296875 294.545898438 3.4384765625 c 0
 280 -5.65234375 272.727539062 3.4384765625 272.727539062 28.892578125 c 0
 272.727539062 50.7109375 263.63671875 85.2568359375 250.909179688 107.075195312 c 0
 240 128.892578125 223.63671875 208.892578125 214.545898438 283.438476562 c 0
 205.454101562 357.983398438 194.545898438 452.529296875 189.090820312 494.34765625 c 0
 180 557.983398438 183.63671875 570.7109375 221.818359375 588.892578125 c 0
396.36328125 523.438476562 m 0
 390.909179688 570.7109375 321.818359375 587.075195312 269.090820312 554.34765625 c 0
 229.090820312 532.529296875 227.272460938 459.801757812 263.63671875 428.892578125 c 0
 280 414.34765625 287.272460938 390.7109375 280 363.438476562 c 0
 274.545898438 339.801757812 276.36328125 319.801757812 283.63671875 319.801757812 c 0
 312.727539062 319.801757812 401.818359375 481.620117188 396.36328125 523.438476562 c 0
498.181640625 225.256835938 m 0
 470.909179688 265.256835938 440 270.7109375 323.63671875 252.529296875 c 0
 281.818359375 245.256835938 272.727539062 236.166015625 272.727539062 192.529296875 c 0
 272.727539062 97.9833984375 287.272460938 83.4384765625 381.818359375 83.4384765625 c 0
 430.909179688 83.4384765625 481.818359375 88.892578125 498.181640625 94.34765625 c 0
 534.545898438 108.892578125 534.545898438 172.529296875 498.181640625 225.256835938 c 0
EndSplineSet
EndChar

StartChar: V
Encoding: 86 86 36
Width: 600
VWidth: 966
Flags: HW
LayerCount: 2
Fore
SplineSet
674.509765625 574.1796875 m 0
 686.274414062 582.0234375 707.842773438 574.1796875 721.568359375 556.533203125 c 0
 756.862304688 509.474609375 750.98046875 491.827148438 701.9609375 497.708984375 c 0
 654.90234375 501.630859375 643.137695312 474.1796875 596.078125 221.239257812 c 0
 554.90234375 5.552734375 501.9609375 -41.505859375 394.1171875 33.00390625 c 0
 335.293945312 76.140625 217.647460938 260.454101562 201.9609375 336.924804688 c 0
 184.313476562 431.04296875 225.490234375 393.788085938 296.078125 254.572265625 c 0
 362.745117188 119.278320312 415.686523438 60.4541015625 468.627929688 60.4541015625 c 0
 505.8828125 60.4541015625 517.647460938 93.7880859375 570.587890625 334.96484375 c 0
 596.078125 450.650390625 639.215820312 550.650390625 674.509765625 574.1796875 c 0
EndSplineSet
EndChar

StartChar: I
Encoding: 73 73 37
Width: 600
VWidth: 981
Flags: HW
LayerCount: 2
Fore
SplineSet
352.727539062 583.63671875 m 0
 514.545898438 621.818359375 672.727539062 587.272460938 672.727539062 514.545898438 c 0
 672.727539062 487.272460938 669.090820312 487.272460938 641.818359375 514.545898438 c 0
 623.63671875 529.090820312 587.272460938 549.090820312 560 554.545898438 c 0
 496.36328125 570.909179688 327.272460938 530.909179688 314.545898438 498.181640625 c 0
 301.818359375 461.818359375 278.181640625 467.272460938 267.272460938 509.090820312 c 0
 256.36328125 550.909179688 272.727539062 563.63671875 352.727539062 583.63671875 c 0
403.63671875 385.455078125 m 0
 427.272460938 463.63671875 450.909179688 527.272460938 456.36328125 527.272460938 c 0
 461.818359375 527.272460938 483.63671875 503.63671875 505.454101562 472.727539062 c 2
 545.454101562 418.181640625 l 1
 507.272460938 423.63671875 l 2
 474.545898438 427.272460938 461.818359375 410.909179688 434.545898438 336.364257812 c 0
 418.181640625 287.272460938 400 216.364257812 396.36328125 181.818359375 c 2
 390.909179688 118.181640625 l 1
 587.272460938 112.727539062 l 2
 767.272460938 109.090820312 781.818359375 105.455078125 781.818359375 72.7275390625 c 0
 781.818359375 38.181640625 769.090820312 36.3642578125 600 36.3642578125 c 0
 490.909179688 36.3642578125 418.181640625 29.0908203125 418.181640625 18.181640625 c 0
 418.181640625 9.0908203125 405.454101562 0 390.909179688 0 c 0
 376.36328125 0 363.63671875 9.0908203125 363.63671875 20 c 0
 363.63671875 34.5458984375 332.727539062 38.181640625 263.63671875 29.0908203125 c 0
 181.818359375 20 163.63671875 23.63671875 163.63671875 45.455078125 c 0
 163.63671875 60 183.63671875 76.3642578125 209.090820312 81.818359375 c 0
 234.545898438 87.2724609375 274.545898438 94.5458984375 298.181640625 100 c 0
 330.909179688 107.272460938 343.63671875 123.63671875 350.909179688 176.364257812 c 0
 356.36328125 214.545898438 380 309.090820312 403.63671875 385.455078125 c 0
EndSplineSet
EndChar

StartChar: T
Encoding: 84 84 38
Width: 600
VWidth: 843
Flags: HW
LayerCount: 2
Fore
SplineSet
294.642578125 439.65625 m 0
 442.857421875 464.65625 796.428710938 462.870117188 789.286132812 437.870117188 c 0
 787.5 428.94140625 751.786132812 423.584960938 712.5 427.15625 c 0
 673.213867188 428.94140625 601.786132812 427.15625 555.357421875 420.013671875 c 2
 469.642578125 409.298828125 l 1
 448.213867188 266.44140625 l 2
 435.713867188 189.65625 432.142578125 98.5849609375 439.286132812 62.8701171875 c 0
 451.786132812 -10.34375 417.857421875 -24.6298828125 400 46.798828125 c 0
 389.286132812 86.0849609375 400 305.727539062 414.286132812 378.94140625 c 0
 417.857421875 395.013671875 403.571289062 400.370117188 366.071289062 395.013671875 c 0
 171.428710938 366.44140625 105.357421875 409.298828125 294.642578125 439.65625 c 0
EndSplineSet
EndChar

StartChar: Y
Encoding: 89 89 39
Width: 600
VWidth: 1022
Flags: HW
LayerCount: 2
Fore
SplineSet
574.193359375 659.677734375 m 0
 580.645507812 677.419921875 587.096679688 677.419921875 600 664.516601562 c 0
 612.903320312 651.61328125 609.677734375 614.516601562 583.87109375 520.967773438 c 2
 550 395.162109375 l 1
 590.322265625 366.129882812 l 2
 640.322265625 327.419921875 640.322265625 303.2265625 588.709960938 316.129882812 c 0
 543.548828125 327.419921875 545.161132812 330.645507812 538.709960938 185.484375 c 0
 537.096679688 111.291015625 543.548828125 79.0322265625 567.7421875 45.162109375 c 0
 593.548828125 8.064453125 595.161132812 0 574.193359375 0 c 0
 530.645507812 0 504.838867188 82.2587890625 501.61328125 225.806640625 c 0
 500 300 496.774414062 364.516601562 493.548828125 366.129882812 c 0
 490.322265625 369.35546875 429.032226562 396.774414062 354.838867188 427.419921875 c 0
 201.61328125 490.323242188 140.322265625 527.419921875 153.225585938 548.387695312 c 0
 158.064453125 556.452148438 238.709960938 525.806640625 333.87109375 482.258789062 c 0
 427.418945312 438.709960938 509.677734375 408.064453125 516.12890625 414.516601562 c 0
 522.581054688 420.967773438 537.096679688 474.194335938 548.38671875 532.258789062 c 0
 558.064453125 590.323242188 570.967773438 646.774414062 574.193359375 659.677734375 c 0
EndSplineSet
EndChar

StartChar: e
Encoding: 101 101 40
Width: 600
VWidth: 857
Flags: HW
LayerCount: 2
Fore
SplineSet
277.55078125 412.244140625 m 0
 306.122070312 444.897460938 338.775390625 473.46875 348.979492188 473.46875 c 0
 367.346679688 473.46875 489.795898438 244.897460938 489.795898438 208.163085938 c 0
 489.795898438 197.958984375 463.265625 187.754882812 430.612304688 187.754882812 c 0
 314.286132812 187.754882812 244.8984375 163.264648438 244.8984375 124.489257812 c 0
 244.8984375 38.775390625 540.81640625 46.9384765625 673.469726562 134.693359375 c 0
 759.18359375 191.836914062 775.509765625 197.958984375 775.509765625 171.428710938 c 0
 775.509765625 161.224609375 732.653320312 124.489257812 679.591796875 85.7138671875 c 0
 595.91796875 28.5712890625 559.18359375 16.326171875 436.734375 8.1630859375 c 2
 289.795898438 0 l 1
 236.734375 77.55078125 l 2
 208.163085938 120.408203125 183.673828125 165.305664062 183.673828125 177.55078125 c 0
 183.673828125 236.734375 232.653320312 357.142578125 277.55078125 412.244140625 c 0
395.91796875 318.3671875 m 0
 375.509765625 359.18359375 353.061523438 391.836914062 342.857421875 391.836914062 c 0
 322.44921875 391.836914062 273.469726562 314.28515625 255.1015625 251.020507812 c 0
 240.81640625 206.122070312 242.857421875 204.081054688 328.571289062 218.3671875 c 0
 377.55078125 226.530273438 420.408203125 234.693359375 424.490234375 238.775390625 c 0
 428.571289062 240.81640625 414.286132812 277.55078125 395.91796875 318.3671875 c 0
EndSplineSet
EndChar

StartChar: W
Encoding: 87 87 41
Width: 600
VWidth: 861
Flags: HW
LayerCount: 2
Fore
SplineSet
614.814453125 472.303710938 m 0
 627.77734375 485.266601562 640.741210938 494.525390625 648.1484375 494.525390625 c 0
 698.1484375 492.673828125 775.92578125 333.415039062 777.77734375 229.7109375 c 0
 777.77734375 94.525390625 625.92578125 1.93359375 525.92578125 77.859375 c 0
 477.77734375 113.043945312 472.22265625 113.043945312 450 61.1923828125 c 0
 422.22265625 3.78515625 244.444335938 -23.9931640625 209.258789062 26.0068359375 c 0
 162.962890625 85.2666015625 201.8515625 383.415039062 253.704101562 383.415039062 c 0
 283.333007812 383.415039062 285.185546875 305.63671875 255.555664062 276.006835938 c 0
 224.07421875 244.525390625 224.07421875 51.93359375 257.407226562 33.4150390625 c 0
 287.037109375 13.0439453125 377.77734375 40.822265625 409.258789062 79.7109375 c 0
 420.370117188 92.673828125 433.333007812 133.415039062 435.185546875 164.896484375 c 0
 442.592773438 253.78515625 442.592773438 253.78515625 462.962890625 253.78515625 c 0
 474.07421875 253.78515625 481.481445312 242.673828125 481.481445312 227.859375 c 0
 481.481445312 179.7109375 557.407226562 105.63671875 607.407226562 105.63671875 c 0
 700 105.63671875 750 177.859375 729.629882812 287.118164062 c 0
 712.962890625 387.118164062 672.22265625 442.673828125 627.77734375 429.7109375 c 0
 588.888671875 416.748046875 581.481445312 438.969726562 614.814453125 472.303710938 c 0
EndSplineSet
EndChar

StartChar: D
Encoding: 68 68 42
Width: 600
Flags: HW
LayerCount: 2
Fore
SplineSet
280.357421875 621.953125 m 0
 353.571289062 645.166992188 430.357421875 627.310546875 482.142578125 577.310546875 c 0
 521.428710938 538.024414062 526.786132812 516.595703125 526.786132812 409.453125 c 0
 526.786132812 296.953125 521.428710938 279.095703125 444.642578125 155.881835938 c 0
 391.071289062 68.3818359375 346.428710938 18.3818359375 316.071289062 7.6669921875 c 0
 260.713867188 -11.9755859375 226.786132812 9.453125 271.428710938 34.453125 c 0
 301.786132812 52.310546875 303.571289062 57.6669921875 276.786132812 323.73828125 c 0
 267.857421875 416.595703125 269.642578125 461.23828125 282.142578125 461.23828125 c 0
 314.286132812 461.23828125 328.571289062 421.953125 323.213867188 345.166992188 c 0
 317.857421875 239.810546875 339.286132812 104.095703125 362.5 104.095703125 c 0
 387.5 104.095703125 482.142578125 304.095703125 494.642578125 380.881835938 c 0
 500 411.23828125 491.071289062 464.810546875 476.786132812 502.310546875 c 0
 444.642578125 577.310546875 387.5 600.524414062 298.213867188 573.73828125 c 0
 248.213867188 561.23828125 239.286132812 548.73828125 232.142578125 488.024414062 c 0
 223.213867188 420.166992188 221.428710938 418.381835938 200 455.881835938 c 0
 153.571289062 538.024414062 180.357421875 591.595703125 280.357421875 621.953125 c 0
EndSplineSet
EndChar

StartChar: G
Encoding: 71 71 43
Width: 600
VWidth: 1004
Flags: HW
LayerCount: 2
Fore
SplineSet
325 598.374023438 m 0
 388.461914062 638.758789062 411.538085938 638.758789062 442.307617188 602.220703125 c 0
 463.461914062 577.220703125 457.692382812 573.374023438 407.692382812 573.374023438 c 0
 292.307617188 573.374023438 209.615234375 404.143554688 240.384765625 227.220703125 c 0
 248.077148438 184.913085938 261.538085938 146.451171875 271.154296875 138.758789062 c 0
 300 121.451171875 290.384765625 92.60546875 259.615234375 104.143554688 c 0
 219.23046875 121.451171875 186.538085938 259.913085938 198.077148438 367.60546875 c 0
 211.538085938 475.297851562 255.76953125 556.06640625 325 598.374023438 c 0
371.154296875 373.374023438 m 0
 426.922851562 398.374023438 576.922851562 394.528320312 621.154296875 367.60546875 c 0
 628.845703125 363.758789062 634.615234375 277.220703125 634.615234375 175.297851562 c 0
 634.615234375 73.3740234375 628.845703125 -5.4716796875 623.077148438 0.2978515625 c 0
 617.307617188 6.06640625 601.922851562 84.9130859375 590.384765625 171.451171875 c 2
 567.307617188 332.989257812 l 1
 478.845703125 338.758789062 l 2
 411.538085938 342.60546875 384.615234375 336.8359375 355.76953125 304.143554688 c 0
 321.154296875 265.681640625 321.154296875 261.8359375 361.538085938 177.220703125 c 0
 411.538085938 77.220703125 411.538085938 73.3740234375 380.76953125 73.3740234375 c 0
 344.23046875 73.3740234375 282.692382812 238.758789062 296.154296875 296.451171875 c 0
 303.845703125 325.297851562 332.692382812 356.06640625 371.154296875 373.374023438 c 0
EndSplineSet
EndChar

StartChar: j
Encoding: 106 106 44
Width: 600
VWidth: 802
Flags: HW
LayerCount: 2
Fore
SplineSet
71.4287109375 578.836914062 m 0
 71.4287109375 591.336914062 83.9287109375 602.05078125 98.2138671875 602.05078125 c 0
 112.5 602.05078125 125 589.55078125 125 575.264648438 c 0
 125 541.336914062 196.428710938 539.55078125 242.857421875 575.264648438 c 0
 285.713867188 607.408203125 303.571289062 609.193359375 303.571289062 575.264648438 c 0
 303.571289062 539.55078125 246.428710938 512.764648438 175 512.764648438 c 0
 112.5 512.764648438 71.4287109375 539.55078125 71.4287109375 578.836914062 c 0
267.857421875 414.55078125 m 0
 267.857421875 428.836914062 280.357421875 441.336914062 294.642578125 441.336914062 c 0
 351.786132812 441.336914062 394.642578125 75.2646484375 355.357421875 -106.877929688 c 0
 332.142578125 -221.163085938 301.786132812 -228.306640625 214.286132812 -139.020507812 c 0
 141.071289062 -64.0205078125 151.786132812 -39.0205078125 230.357421875 -105.091796875 c 0
 262.5 -130.091796875 291.071289062 -147.94921875 296.428710938 -142.591796875 c 0
 301.786132812 -137.235351562 312.5 -85.44921875 321.428710938 -24.7353515625 c 0
 339.286132812 105.622070312 326.786132812 269.908203125 292.857421875 337.764648438 c 0
 278.571289062 364.55078125 267.857421875 398.479492188 267.857421875 414.55078125 c 0
EndSplineSet
EndChar

StartChar: w
Encoding: 119 119 45
Width: 600
VWidth: 716
Flags: HW
LayerCount: 2
Fore
SplineSet
586.20703125 319.875976562 m 0
 586.20703125 359.53125 682.758789062 347.461914062 736.20703125 302.634765625 c 0
 777.5859375 266.427734375 784.482421875 249.186523438 784.482421875 164.703125 c 0
 784.482421875 88.841796875 775.862304688 61.2548828125 746.551757812 30.220703125 c 0
 708.62109375 -5.986328125 703.448242188 -7.7099609375 625.862304688 14.703125 c 0
 579.310546875 28.4970703125 527.5859375 37.1171875 508.62109375 33.6689453125 c 0
 489.655273438 31.9453125 420.689453125 30.220703125 355.172851562 28.4970703125 c 0
 251.724609375 28.4970703125 232.758789062 31.9453125 203.448242188 66.427734375 c 0
 163.79296875 118.15234375 163.79296875 202.634765625 206.896484375 257.806640625 c 0
 231.034179688 290.565429688 244.827148438 295.73828125 258.62109375 281.9453125 c 0
 281.034179688 259.53125 253.448242188 188.841796875 224.137695312 188.841796875 c 0
 200 188.841796875 203.448242188 133.668945312 231.034179688 97.4619140625 c 0
 265.517578125 52.634765625 363.79296875 28.4970703125 422.4140625 50.91015625 c 0
 460.344726562 64.703125 467.241210938 75.048828125 456.896484375 107.806640625 c 0
 424.137695312 214.703125 456.896484375 247.461914062 503.448242188 150.91015625 c 0
 536.20703125 83.6689453125 606.896484375 45.73828125 682.758789062 54.3583984375 c 0
 729.310546875 59.53125 732.758789062 64.703125 737.930664062 149.186523438 c 0
 744.827148438 256.083007812 700 318.15234375 627.5859375 304.358398438 c 0
 600 299.186523438 586.20703125 304.358398438 586.20703125 319.875976562 c 0
EndSplineSet
EndChar

StartChar: Z
Encoding: 90 90 46
Width: 600
VWidth: 902
Flags: HW
LayerCount: 2
Fore
SplineSet
152.458984375 533.411132812 m 0
 162.294921875 549.8046875 577.048828125 539.96875 595.08203125 521.935546875 c 0
 609.8359375 508.821289062 465.57421875 220.296875 408.196289062 148.165039062 c 0
 391.803710938 125.21484375 377.048828125 100.624023438 377.048828125 94.0673828125 c 0
 377.048828125 85.8701171875 449.180664062 84.23046875 537.705078125 89.1484375 c 0
 663.934570312 97.345703125 709.8359375 94.0673828125 759.016601562 74.39453125 c 0
 824.58984375 46.5263671875 845.901367188 2.263671875 783.606445312 21.935546875 c 0
 693.442382812 49.8046875 537.705078125 49.8046875 426.229492188 20.296875 c 0
 363.934570312 3.9033203125 306.557617188 -4.2939453125 301.639648438 2.263671875 c 0
 288.524414062 15.37890625 311.475585938 66.1982421875 386.884765625 185.870117188 c 0
 436.065429688 264.55859375 540.983398438 464.55859375 540.983398438 479.3125 c 0
 540.983398438 482.591796875 457.376953125 489.1484375 354.098632812 492.427734375 c 0
 172.130859375 497.345703125 134.42578125 505.541992188 152.458984375 533.411132812 c 0
EndSplineSet
EndChar

StartChar: K
Encoding: 75 75 47
Width: 600
VWidth: 967
Flags: HW
LayerCount: 2
Fore
SplineSet
186.538085938 581.1328125 m 0
 209.615234375 617.670898438 250 529.208984375 250 446.516601562 c 0
 250 346.516601562 276.922851562 340.748046875 355.76953125 421.516601562 c 0
 413.461914062 481.1328125 500 500.36328125 500 450.36328125 c 0
 500 434.978515625 461.538085938 396.516601562 413.461914062 363.825195312 c 0
 317.307617188 298.440429688 280.76953125 198.440429688 328.845703125 138.825195312 c 0
 367.307617188 94.59375 467.307617188 56.1328125 548.077148438 56.1328125 c 0
 598.077148438 56.1328125 615.384765625 48.4404296875 615.384765625 25.36328125 c 0
 615.384765625 -1.5595703125 600 -5.40625 505.76953125 6.1328125 c 0
 407.692382812 15.748046875 384.615234375 27.2861328125 321.154296875 94.59375 c 0
 238.461914062 183.055664062 230.76953125 184.978515625 230.76953125 134.978515625 c 0
 230.76953125 113.825195312 221.154296875 90.748046875 211.538085938 84.978515625 c 0
 196.154296875 75.36328125 194.23046875 125.36328125 203.845703125 242.670898438 c 0
 211.538085938 346.516601562 207.692382812 440.748046875 196.154296875 486.901367188 c 0
 184.615234375 529.208984375 180.76953125 571.516601562 186.538085938 581.1328125 c 0
EndSplineSet
EndChar

StartChar: k
Encoding: 107 107 48
Width: 600
VWidth: 1007
Flags: HW
LayerCount: 2
Fore
SplineSet
272.727539062 612.7265625 m 0
 272.727539062 630.909179688 281.818359375 643.635742188 296.36328125 638.181640625 c 0
 323.63671875 629.090820312 316.36328125 561.818359375 272.727539062 423.635742188 c 0
 252.727539062 365.454101562 232.727539062 289.090820312 225.454101562 252.7265625 c 0
 205.454101562 140 254.545898438 38.181640625 280 141.818359375 c 0
 287.272460938 174.544921875 389.090820312 340 430.909179688 387.272460938 c 0
 434.545898438 392.7265625 445.454101562 387.272460938 456.36328125 376.36328125 c 0
 472.727539062 360 461.818359375 336.36328125 420 285.454101562 c 0
 389.090820312 249.090820312 363.63671875 207.272460938 363.63671875 196.36328125 c 0
 363.63671875 160 460 125.454101562 567.272460938 125.454101562 c 0
 625.454101562 125.454101562 672.727539062 120 672.727539062 114.544921875 c 0
 672.727539062 65.4541015625 438.181640625 67.2724609375 378.181640625 116.36328125 c 2
 332.727539062 150.909179688 l 1
 301.818359375 74.544921875 l 1
 272.727539062 0 l 1
 232.727539062 38.181640625 l 2
 172.727539062 100 169.090820312 238.181640625 225.454101562 423.635742188 c 0
 250.909179688 509.090820312 272.727539062 592.7265625 272.727539062 612.7265625 c 0
EndSplineSet
EndChar

StartChar: X
Encoding: 88 88 49
Width: 600
VWidth: 809
Flags: HW
LayerCount: 2
Fore
SplineSet
610.169921875 412.790039062 m 0
 657.626953125 444.993164062 747.458007812 443.298828125 759.322265625 411.095703125 c 0
 762.711914062 395.840820312 745.762695312 389.061523438 708.474609375 389.061523438 c 0
 652.541992188 389.061523438 586.440429688 351.7734375 516.94921875 282.282226562 c 0
 481.35546875 246.688476562 489.830078125 236.518554688 593.220703125 194.146484375 c 0
 700 148.383789062 796.610351562 87.3662109375 808.474609375 56.8583984375 c 0
 823.728515625 14.4853515625 798.3046875 7.705078125 762.711914062 44.9931640625 c 0
 733.8984375 77.197265625 491.525390625 202.62109375 459.322265625 202.62109375 c 0
 450.84765625 202.62109375 400 156.858398438 345.762695312 100.92578125 c 0
 254.237304688 4.3154296875 220.338867188 -17.7177734375 220.338867188 12.7900390625 c 0
 220.338867188 19.5703125 257.626953125 68.72265625 305.084960938 121.264648438 c 0
 352.541992188 173.807617188 389.830078125 221.264648438 389.830078125 224.654296875 c 0
 389.830078125 241.603515625 272.881835938 273.807617188 254.237304688 261.942382812 c 0
 230.508789062 246.688476562 169.491210938 283.9765625 169.491210938 312.790039062 c 0
 169.491210938 344.993164062 171.186523438 344.993164062 318.64453125 300.92578125 c 2
 442.373046875 265.333007812 l 1
 505.084960938 324.654296875 l 2
 538.983398438 356.858398438 586.440429688 397.536132812 610.169921875 412.790039062 c 0
EndSplineSet
EndChar

StartChar: i
Encoding: 105 105 50
Width: 600
VWidth: 971
Flags: HW
LayerCount: 2
Fore
SplineSet
410.344726562 502.309570312 m 0
 486.20703125 550.5859375 517.241210938 543.689453125 517.241210938 478.171875 c 0
 517.241210938 364.37890625 360.344726562 281.620117188 334.482421875 381.620117188 c 0
 322.4140625 435.068359375 332.758789062 452.309570312 410.344726562 502.309570312 c 0
437.930664062 407.482421875 m 0
 455.172851562 426.448242188 465.517578125 454.034179688 462.069335938 469.55078125 c 0
 456.896484375 493.689453125 453.448242188 493.689453125 418.965820312 469.55078125 c 0
 396.551757812 454.034179688 379.310546875 426.448242188 379.310546875 407.482421875 c 0
 379.310546875 366.102539062 400 366.102539062 437.930664062 407.482421875 c 0
506.896484375 250.5859375 m 0
 498.275390625 278.171875 503.448242188 288.516601562 522.4140625 288.516601562 c 0
 553.448242188 288.516601562 567.241210938 231.620117188 574.137695312 91.96484375 c 0
 579.310546875 -37.345703125 541.37890625 -27 529.310546875 102.309570312 c 0
 524.137695312 162.654296875 513.79296875 228.171875 506.896484375 250.5859375 c 0
EndSplineSet
EndChar

StartChar: r
Encoding: 114 114 51
Width: 600
VWidth: 884
Flags: HW
LayerCount: 2
Fore
SplineSet
252.631835938 400 m 0
 263.158203125 415.790039062 315.7890625 421.052734375 392.10546875 407.895507812 c 0
 457.89453125 397.369140625 552.631835938 389.473632812 602.631835938 386.842773438 c 0
 702.631835938 381.579101562 752.631835938 315.790039062 657.89453125 315.790039062 c 0
 613.158203125 315.790039062 605.262695312 305.263671875 621.052734375 271.052734375 c 0
 631.579101562 244.737304688 644.737304688 173.684570312 652.631835938 113.158203125 c 0
 663.158203125 7.8955078125 657.89453125 0 602.631835938 0 c 0
 471.052734375 0 421.052734375 28.9482421875 421.052734375 102.631835938 c 0
 421.052734375 142.10546875 439.473632812 200 463.158203125 234.2109375 c 0
 510.526367188 302.631835938 494.737304688 328.948242188 389.473632812 355.263671875 c 0
 331.579101562 371.052734375 315.7890625 365.790039062 315.7890625 331.579101562 c 0
 315.7890625 307.895507812 305.262695312 289.473632812 292.10546875 289.473632812 c 0
 260.526367188 289.473632812 231.579101562 365.790039062 252.631835938 400 c 0
589.473632812 168.421875 m 0
 571.052734375 244.737304688 552.631835938 252.631835938 505.262695312 205.263671875 c 0
 460.526367188 160.526367188 465.7890625 78.9482421875 515.7890625 60.5263671875 c 0
 576.315429688 39.4736328125 610.526367188 86.8427734375 589.473632812 168.421875 c 0
EndSplineSet
EndChar

StartChar: C
Encoding: 67 67 52
Width: 600
VWidth: 955
Flags: HW
LayerCount: 2
Fore
SplineSet
397.958984375 548.979492188 m 0
 459.18359375 583.672851562 520.408203125 567.346679688 526.530273438 516.326171875 c 0
 534.694335938 467.346679688 500 451.01953125 483.673828125 495.91796875 c 0
 471.428710938 536.734375 332.653320312 459.18359375 285.713867188 383.672851562 c 0
 200 242.856445312 257.142578125 122.448242188 428.571289062 81.6318359375 c 0
 483.673828125 69.3876953125 565.305664062 63.2646484375 610.204101562 71.427734375 c 0
 685.713867188 83.6728515625 689.795898438 81.6318359375 679.591796875 42.8564453125 c 0
 669.387695312 4.0810546875 653.061523438 0 508.163085938 0 c 0
 410.204101562 0 346.938476562 8.1630859375 346.938476562 20.4072265625 c 0
 346.938476562 32.65234375 310.204101562 77.55078125 265.305664062 120.407226562 c 0
 175.509765625 204.081054688 163.265625 267.346679688 212.245117188 363.264648438 c 0
 242.857421875 422.448242188 332.653320312 510.203125 397.958984375 548.979492188 c 0
EndSplineSet
EndChar
